<mxfile host="app.diagrams.net" modified="2022-05-20T03:41:14.898Z" agent="5.0 (Windows NT 10.0; Win64; x64) AppleWebKit/537.36 (KHTML, like Gecko) Chrome/101.0.4951.67 Safari/537.36" etag="TjOU3TymLdouYjCItL3M" version="15.8.2" type="github">
  <diagram id="10V_ZsHBroovQ1ZsAfA-" name="Page-1">
    <mxGraphModel dx="1283" dy="1858" grid="1" gridSize="10" guides="1" tooltips="1" connect="1" arrows="1" fold="1" page="1" pageScale="1" pageWidth="827" pageHeight="1169" math="0" shadow="0">
      <root>
        <mxCell id="0" />
        <mxCell id="1" parent="0" />
        <mxCell id="zf15GM8cpNs29qNIpieo-1" value="Xác định phạm vi&lt;br&gt;200$" style="rounded=1;whiteSpace=wrap;html=1;" vertex="1" parent="1">
          <mxGeometry x="350" y="220" width="120" height="60" as="geometry" />
        </mxCell>
        <mxCell id="zf15GM8cpNs29qNIpieo-2" value="Xác định yêu cầu&lt;br&gt;500$" style="rounded=1;whiteSpace=wrap;html=1;" vertex="1" parent="1">
          <mxGeometry x="350" y="310" width="120" height="60" as="geometry" />
        </mxCell>
        <mxCell id="zf15GM8cpNs29qNIpieo-3" value="Đặc tả yêu cầu&lt;br&gt;500$" style="rounded=1;whiteSpace=wrap;html=1;" vertex="1" parent="1">
          <mxGeometry x="350" y="400" width="120" height="60" as="geometry" />
        </mxCell>
        <mxCell id="zf15GM8cpNs29qNIpieo-4" value="Lập kế hoạch&lt;br&gt;200$" style="rounded=1;whiteSpace=wrap;html=1;" vertex="1" parent="1">
          <mxGeometry x="350" y="480" width="120" height="60" as="geometry" />
        </mxCell>
        <mxCell id="zf15GM8cpNs29qNIpieo-5" value="Phân tích yêu cầu&lt;br&gt;1400$" style="rounded=0;whiteSpace=wrap;html=1;" vertex="1" parent="1">
          <mxGeometry x="240" y="130" width="120" height="60" as="geometry" />
        </mxCell>
        <mxCell id="zf15GM8cpNs29qNIpieo-10" value="Thiết kế cấu trúc&lt;br&gt;300$" style="rounded=1;whiteSpace=wrap;html=1;" vertex="1" parent="1">
          <mxGeometry x="650" y="220" width="120" height="60" as="geometry" />
        </mxCell>
        <mxCell id="zf15GM8cpNs29qNIpieo-11" value="Thiết kế giao diện&lt;br&gt;300$" style="rounded=1;whiteSpace=wrap;html=1;" vertex="1" parent="1">
          <mxGeometry x="650" y="310" width="120" height="60" as="geometry" />
        </mxCell>
        <mxCell id="zf15GM8cpNs29qNIpieo-12" value="Thiết kế CSDL&lt;br&gt;300$" style="rounded=1;whiteSpace=wrap;html=1;" vertex="1" parent="1">
          <mxGeometry x="650" y="400" width="120" height="60" as="geometry" />
        </mxCell>
        <mxCell id="zf15GM8cpNs29qNIpieo-13" value="Thiết kế chi tiết&lt;br&gt;500$" style="rounded=1;whiteSpace=wrap;html=1;" vertex="1" parent="1">
          <mxGeometry x="650" y="480" width="120" height="60" as="geometry" />
        </mxCell>
        <mxCell id="zf15GM8cpNs29qNIpieo-14" value="Pha thiết kế&lt;br&gt;1400$" style="rounded=0;whiteSpace=wrap;html=1;" vertex="1" parent="1">
          <mxGeometry x="540" y="130" width="120" height="60" as="geometry" />
        </mxCell>
        <mxCell id="zf15GM8cpNs29qNIpieo-19" value="Tích hợp dữ liệu&lt;br&gt;500$" style="rounded=1;whiteSpace=wrap;html=1;" vertex="1" parent="1">
          <mxGeometry x="930" y="220" width="120" height="60" as="geometry" />
        </mxCell>
        <mxCell id="zf15GM8cpNs29qNIpieo-20" value="Thiết kế chức năng đặt hàng&lt;br&gt;1200$" style="rounded=1;whiteSpace=wrap;html=1;" vertex="1" parent="1">
          <mxGeometry x="930" y="310" width="120" height="60" as="geometry" />
        </mxCell>
        <mxCell id="zf15GM8cpNs29qNIpieo-21" value="Thiết kế chức năng&lt;br&gt;thanh toán&lt;br&gt;1200$" style="rounded=1;whiteSpace=wrap;html=1;" vertex="1" parent="1">
          <mxGeometry x="930" y="400" width="120" height="60" as="geometry" />
        </mxCell>
        <mxCell id="zf15GM8cpNs29qNIpieo-22" value="Thiết kế chức năng&lt;br&gt;quản lý người dùng&lt;br&gt;1200$" style="rounded=1;whiteSpace=wrap;html=1;" vertex="1" parent="1">
          <mxGeometry x="930" y="480" width="120" height="60" as="geometry" />
        </mxCell>
        <mxCell id="zf15GM8cpNs29qNIpieo-23" value="Pha cài đặt&lt;br&gt;4100$" style="rounded=0;whiteSpace=wrap;html=1;" vertex="1" parent="1">
          <mxGeometry x="820" y="130" width="120" height="60" as="geometry" />
        </mxCell>
        <mxCell id="zf15GM8cpNs29qNIpieo-28" value="Kiểm thử thành phần&lt;br&gt;300$" style="rounded=1;whiteSpace=wrap;html=1;" vertex="1" parent="1">
          <mxGeometry x="1200" y="225" width="120" height="60" as="geometry" />
        </mxCell>
        <mxCell id="zf15GM8cpNs29qNIpieo-29" value="Kiểm thử hệ thống&lt;br&gt;400$" style="rounded=1;whiteSpace=wrap;html=1;" vertex="1" parent="1">
          <mxGeometry x="1200" y="315" width="120" height="60" as="geometry" />
        </mxCell>
        <mxCell id="zf15GM8cpNs29qNIpieo-30" value="Kiểm thử chấp thuận&lt;br&gt;200$" style="rounded=1;whiteSpace=wrap;html=1;" vertex="1" parent="1">
          <mxGeometry x="1200" y="405" width="120" height="60" as="geometry" />
        </mxCell>
        <mxCell id="zf15GM8cpNs29qNIpieo-32" value="Pha kiểm thử&lt;br&gt;900$" style="rounded=0;whiteSpace=wrap;html=1;" vertex="1" parent="1">
          <mxGeometry x="1090" y="135" width="120" height="60" as="geometry" />
        </mxCell>
        <mxCell id="zf15GM8cpNs29qNIpieo-37" value="Chuyển giao tài liệu&lt;br&gt;100$" style="rounded=1;whiteSpace=wrap;html=1;" vertex="1" parent="1">
          <mxGeometry x="1460" y="220" width="120" height="60" as="geometry" />
        </mxCell>
        <mxCell id="zf15GM8cpNs29qNIpieo-38" value="Cài đặt và hướng dẫn&lt;br&gt;100$" style="rounded=1;whiteSpace=wrap;html=1;" vertex="1" parent="1">
          <mxGeometry x="1460" y="310" width="120" height="60" as="geometry" />
        </mxCell>
        <mxCell id="zf15GM8cpNs29qNIpieo-39" value="Hợp đồng bảo trì&lt;br&gt;100$" style="rounded=1;whiteSpace=wrap;html=1;" vertex="1" parent="1">
          <mxGeometry x="1460" y="400" width="120" height="60" as="geometry" />
        </mxCell>
        <mxCell id="zf15GM8cpNs29qNIpieo-41" value="Pha bàn giao&lt;br&gt;300$" style="rounded=0;whiteSpace=wrap;html=1;" vertex="1" parent="1">
          <mxGeometry x="1350" y="130" width="120" height="60" as="geometry" />
        </mxCell>
        <mxCell id="zf15GM8cpNs29qNIpieo-46" value="Dự án ABC Wear&lt;br&gt;8100$" style="rounded=0;whiteSpace=wrap;html=1;" vertex="1" parent="1">
          <mxGeometry x="820" y="-20" width="120" height="60" as="geometry" />
        </mxCell>
        <mxCell id="zf15GM8cpNs29qNIpieo-47" value="" style="endArrow=classic;html=1;rounded=0;exitX=0.5;exitY=0;exitDx=0;exitDy=0;entryX=0.5;entryY=1;entryDx=0;entryDy=0;" edge="1" parent="1" source="zf15GM8cpNs29qNIpieo-5" target="zf15GM8cpNs29qNIpieo-46">
          <mxGeometry width="50" height="50" relative="1" as="geometry">
            <mxPoint x="660" y="30" as="sourcePoint" />
            <mxPoint x="710" y="-20" as="targetPoint" />
          </mxGeometry>
        </mxCell>
        <mxCell id="zf15GM8cpNs29qNIpieo-49" value="" style="endArrow=classic;html=1;rounded=0;exitX=0.5;exitY=0;exitDx=0;exitDy=0;" edge="1" parent="1" source="zf15GM8cpNs29qNIpieo-32">
          <mxGeometry width="50" height="50" relative="1" as="geometry">
            <mxPoint x="320" y="150" as="sourcePoint" />
            <mxPoint x="880" y="40" as="targetPoint" />
          </mxGeometry>
        </mxCell>
        <mxCell id="zf15GM8cpNs29qNIpieo-50" value="" style="endArrow=classic;html=1;rounded=0;exitX=0.5;exitY=0;exitDx=0;exitDy=0;entryX=0.5;entryY=1;entryDx=0;entryDy=0;" edge="1" parent="1" source="zf15GM8cpNs29qNIpieo-14" target="zf15GM8cpNs29qNIpieo-46">
          <mxGeometry width="50" height="50" relative="1" as="geometry">
            <mxPoint x="330" y="160" as="sourcePoint" />
            <mxPoint x="910" y="70" as="targetPoint" />
          </mxGeometry>
        </mxCell>
        <mxCell id="zf15GM8cpNs29qNIpieo-51" value="" style="endArrow=classic;html=1;rounded=0;exitX=0.5;exitY=0;exitDx=0;exitDy=0;entryX=0.5;entryY=1;entryDx=0;entryDy=0;" edge="1" parent="1" source="zf15GM8cpNs29qNIpieo-23" target="zf15GM8cpNs29qNIpieo-46">
          <mxGeometry width="50" height="50" relative="1" as="geometry">
            <mxPoint x="340" y="170" as="sourcePoint" />
            <mxPoint x="920" y="80" as="targetPoint" />
          </mxGeometry>
        </mxCell>
        <mxCell id="zf15GM8cpNs29qNIpieo-52" value="" style="endArrow=classic;html=1;rounded=0;exitX=0.5;exitY=0;exitDx=0;exitDy=0;" edge="1" parent="1" source="zf15GM8cpNs29qNIpieo-41">
          <mxGeometry width="50" height="50" relative="1" as="geometry">
            <mxPoint x="350" y="180" as="sourcePoint" />
            <mxPoint x="880" y="40" as="targetPoint" />
          </mxGeometry>
        </mxCell>
        <mxCell id="zf15GM8cpNs29qNIpieo-57" value="" style="endArrow=classic;html=1;rounded=0;entryX=0.5;entryY=1;entryDx=0;entryDy=0;" edge="1" parent="1" target="zf15GM8cpNs29qNIpieo-5">
          <mxGeometry width="50" height="50" relative="1" as="geometry">
            <mxPoint x="300" y="510" as="sourcePoint" />
            <mxPoint x="600" y="380" as="targetPoint" />
          </mxGeometry>
        </mxCell>
        <mxCell id="zf15GM8cpNs29qNIpieo-58" value="" style="endArrow=none;html=1;rounded=0;exitX=0;exitY=0.5;exitDx=0;exitDy=0;" edge="1" parent="1" source="zf15GM8cpNs29qNIpieo-1">
          <mxGeometry width="50" height="50" relative="1" as="geometry">
            <mxPoint x="550" y="430" as="sourcePoint" />
            <mxPoint x="300" y="250" as="targetPoint" />
          </mxGeometry>
        </mxCell>
        <mxCell id="zf15GM8cpNs29qNIpieo-59" value="" style="endArrow=none;html=1;rounded=0;exitX=0;exitY=0.5;exitDx=0;exitDy=0;" edge="1" parent="1">
          <mxGeometry width="50" height="50" relative="1" as="geometry">
            <mxPoint x="350" y="339.29" as="sourcePoint" />
            <mxPoint x="300" y="339.29" as="targetPoint" />
          </mxGeometry>
        </mxCell>
        <mxCell id="zf15GM8cpNs29qNIpieo-60" value="" style="endArrow=none;html=1;rounded=0;exitX=0;exitY=0.5;exitDx=0;exitDy=0;" edge="1" parent="1">
          <mxGeometry width="50" height="50" relative="1" as="geometry">
            <mxPoint x="350" y="434.28999999999996" as="sourcePoint" />
            <mxPoint x="300" y="434.28999999999996" as="targetPoint" />
          </mxGeometry>
        </mxCell>
        <mxCell id="zf15GM8cpNs29qNIpieo-61" value="" style="endArrow=none;html=1;rounded=0;exitX=0;exitY=0.5;exitDx=0;exitDy=0;" edge="1" parent="1">
          <mxGeometry width="50" height="50" relative="1" as="geometry">
            <mxPoint x="350" y="509.28999999999996" as="sourcePoint" />
            <mxPoint x="300" y="509.28999999999996" as="targetPoint" />
          </mxGeometry>
        </mxCell>
        <mxCell id="zf15GM8cpNs29qNIpieo-62" value="" style="endArrow=classic;html=1;rounded=0;entryX=0.5;entryY=1;entryDx=0;entryDy=0;" edge="1" parent="1">
          <mxGeometry width="50" height="50" relative="1" as="geometry">
            <mxPoint x="600" y="510" as="sourcePoint" />
            <mxPoint x="600" y="190" as="targetPoint" />
          </mxGeometry>
        </mxCell>
        <mxCell id="zf15GM8cpNs29qNIpieo-63" value="" style="endArrow=none;html=1;rounded=0;exitX=0;exitY=0.5;exitDx=0;exitDy=0;" edge="1" parent="1">
          <mxGeometry width="50" height="50" relative="1" as="geometry">
            <mxPoint x="650" y="250" as="sourcePoint" />
            <mxPoint x="600" y="250" as="targetPoint" />
          </mxGeometry>
        </mxCell>
        <mxCell id="zf15GM8cpNs29qNIpieo-64" value="" style="endArrow=none;html=1;rounded=0;exitX=0;exitY=0.5;exitDx=0;exitDy=0;" edge="1" parent="1">
          <mxGeometry width="50" height="50" relative="1" as="geometry">
            <mxPoint x="650" y="339.28999999999996" as="sourcePoint" />
            <mxPoint x="600" y="339.28999999999996" as="targetPoint" />
          </mxGeometry>
        </mxCell>
        <mxCell id="zf15GM8cpNs29qNIpieo-65" value="" style="endArrow=none;html=1;rounded=0;exitX=0;exitY=0.5;exitDx=0;exitDy=0;" edge="1" parent="1">
          <mxGeometry width="50" height="50" relative="1" as="geometry">
            <mxPoint x="650" y="434.28999999999996" as="sourcePoint" />
            <mxPoint x="600" y="434.28999999999996" as="targetPoint" />
          </mxGeometry>
        </mxCell>
        <mxCell id="zf15GM8cpNs29qNIpieo-66" value="" style="endArrow=none;html=1;rounded=0;exitX=0;exitY=0.5;exitDx=0;exitDy=0;" edge="1" parent="1">
          <mxGeometry width="50" height="50" relative="1" as="geometry">
            <mxPoint x="650" y="509.28999999999996" as="sourcePoint" />
            <mxPoint x="600" y="509.28999999999996" as="targetPoint" />
          </mxGeometry>
        </mxCell>
        <mxCell id="zf15GM8cpNs29qNIpieo-67" value="" style="endArrow=classic;html=1;rounded=0;entryX=0.5;entryY=1;entryDx=0;entryDy=0;" edge="1" parent="1">
          <mxGeometry width="50" height="50" relative="1" as="geometry">
            <mxPoint x="880" y="510" as="sourcePoint" />
            <mxPoint x="880" y="190" as="targetPoint" />
          </mxGeometry>
        </mxCell>
        <mxCell id="zf15GM8cpNs29qNIpieo-68" value="" style="endArrow=none;html=1;rounded=0;exitX=0;exitY=0.5;exitDx=0;exitDy=0;" edge="1" parent="1">
          <mxGeometry width="50" height="50" relative="1" as="geometry">
            <mxPoint x="930" y="250" as="sourcePoint" />
            <mxPoint x="880" y="250" as="targetPoint" />
          </mxGeometry>
        </mxCell>
        <mxCell id="zf15GM8cpNs29qNIpieo-69" value="" style="endArrow=none;html=1;rounded=0;exitX=0;exitY=0.5;exitDx=0;exitDy=0;" edge="1" parent="1">
          <mxGeometry width="50" height="50" relative="1" as="geometry">
            <mxPoint x="930" y="339.28999999999996" as="sourcePoint" />
            <mxPoint x="880" y="339.28999999999996" as="targetPoint" />
          </mxGeometry>
        </mxCell>
        <mxCell id="zf15GM8cpNs29qNIpieo-70" value="" style="endArrow=none;html=1;rounded=0;exitX=0;exitY=0.5;exitDx=0;exitDy=0;" edge="1" parent="1">
          <mxGeometry width="50" height="50" relative="1" as="geometry">
            <mxPoint x="930" y="434.28999999999996" as="sourcePoint" />
            <mxPoint x="880" y="434.28999999999996" as="targetPoint" />
          </mxGeometry>
        </mxCell>
        <mxCell id="zf15GM8cpNs29qNIpieo-71" value="" style="endArrow=none;html=1;rounded=0;exitX=0;exitY=0.5;exitDx=0;exitDy=0;" edge="1" parent="1">
          <mxGeometry width="50" height="50" relative="1" as="geometry">
            <mxPoint x="930" y="509.28999999999996" as="sourcePoint" />
            <mxPoint x="880" y="509.28999999999996" as="targetPoint" />
          </mxGeometry>
        </mxCell>
        <mxCell id="zf15GM8cpNs29qNIpieo-72" value="" style="endArrow=classic;html=1;rounded=0;entryX=0.5;entryY=1;entryDx=0;entryDy=0;" edge="1" parent="1">
          <mxGeometry width="50" height="50" relative="1" as="geometry">
            <mxPoint x="1150" y="440" as="sourcePoint" />
            <mxPoint x="1150" y="195" as="targetPoint" />
          </mxGeometry>
        </mxCell>
        <mxCell id="zf15GM8cpNs29qNIpieo-73" value="" style="endArrow=none;html=1;rounded=0;exitX=0;exitY=0.5;exitDx=0;exitDy=0;" edge="1" parent="1">
          <mxGeometry width="50" height="50" relative="1" as="geometry">
            <mxPoint x="1200" y="255" as="sourcePoint" />
            <mxPoint x="1150" y="255" as="targetPoint" />
          </mxGeometry>
        </mxCell>
        <mxCell id="zf15GM8cpNs29qNIpieo-74" value="" style="endArrow=none;html=1;rounded=0;exitX=0;exitY=0.5;exitDx=0;exitDy=0;" edge="1" parent="1">
          <mxGeometry width="50" height="50" relative="1" as="geometry">
            <mxPoint x="1200" y="344.28999999999996" as="sourcePoint" />
            <mxPoint x="1150" y="344.28999999999996" as="targetPoint" />
          </mxGeometry>
        </mxCell>
        <mxCell id="zf15GM8cpNs29qNIpieo-75" value="" style="endArrow=none;html=1;rounded=0;exitX=0;exitY=0.5;exitDx=0;exitDy=0;" edge="1" parent="1">
          <mxGeometry width="50" height="50" relative="1" as="geometry">
            <mxPoint x="1200" y="439.28999999999996" as="sourcePoint" />
            <mxPoint x="1150" y="439.28999999999996" as="targetPoint" />
          </mxGeometry>
        </mxCell>
        <mxCell id="zf15GM8cpNs29qNIpieo-77" value="" style="endArrow=classic;html=1;rounded=0;entryX=0.5;entryY=1;entryDx=0;entryDy=0;" edge="1" parent="1">
          <mxGeometry width="50" height="50" relative="1" as="geometry">
            <mxPoint x="1410" y="435" as="sourcePoint" />
            <mxPoint x="1410" y="190" as="targetPoint" />
          </mxGeometry>
        </mxCell>
        <mxCell id="zf15GM8cpNs29qNIpieo-78" value="" style="endArrow=none;html=1;rounded=0;exitX=0;exitY=0.5;exitDx=0;exitDy=0;" edge="1" parent="1">
          <mxGeometry width="50" height="50" relative="1" as="geometry">
            <mxPoint x="1460" y="250" as="sourcePoint" />
            <mxPoint x="1410" y="250" as="targetPoint" />
          </mxGeometry>
        </mxCell>
        <mxCell id="zf15GM8cpNs29qNIpieo-79" value="" style="endArrow=none;html=1;rounded=0;exitX=0;exitY=0.5;exitDx=0;exitDy=0;" edge="1" parent="1">
          <mxGeometry width="50" height="50" relative="1" as="geometry">
            <mxPoint x="1460" y="339.28999999999996" as="sourcePoint" />
            <mxPoint x="1410" y="339.28999999999996" as="targetPoint" />
          </mxGeometry>
        </mxCell>
        <mxCell id="zf15GM8cpNs29qNIpieo-80" value="" style="endArrow=none;html=1;rounded=0;exitX=0;exitY=0.5;exitDx=0;exitDy=0;" edge="1" parent="1">
          <mxGeometry width="50" height="50" relative="1" as="geometry">
            <mxPoint x="1460" y="434.28999999999996" as="sourcePoint" />
            <mxPoint x="1410" y="434.28999999999996" as="targetPoint" />
          </mxGeometry>
        </mxCell>
      </root>
    </mxGraphModel>
  </diagram>
</mxfile>
